<?xml version="1.0" encoding="utf-8"?>
<!-- Generator: Adobe Illustrator 25.0.1, SVG Export Plug-In . SVG Version: 6.00 Build 0)  -->
<svg version="1.1" id="Layer_1" xmlns="http://www.w3.org/2000/svg" xmlns:xlink="http://www.w3.org/1999/xlink" x="0px" y="0px"
	 viewBox="0 0 152 151.4" style="enable-background:new 0 0 152 151.4;" xml:space="preserve">
<style type="text/css">
	.st0{display:none;fill:#01A5C9;}
	.st1{fill:#EE2A28;}
	.st2{fill:#FBD1D1;}
	.st3{fill:#FFFFFF;}
	.st4{fill:#F37879;}
</style>
<rect x="-55.3" y="-180.3" class="st0" width="503.8" height="512"/>
<g>
	<g>
		<circle class="st1" cx="76" cy="74.7" r="72.9"/>
		<g>
			<g>
				<path class="st2" d="M83,96.1L83,96.1l-0.5,0.5l-0.1,0.1l-7,7.5v12.8c0,0.4,0.3,0.8,0.8,0.8h6.4c0.4,0,0.8-0.3,0.8-0.8V95.7
					L83,96.1L83,96.1z"/>
				<path class="st3" d="M103.9,69.2c-2-0.9-4.4-1.3-7.1-1.3c-3.1,0-5.9,0.6-8.3,1.9c-2.4,1.2-4.6,3.2-6.6,5.8
					c-1.5-2.6-3.2-4.6-5.3-5.8c-2-1.2-4.5-1.8-7.4-1.8c-3.2,0-6,0.7-8.4,2c-2.4,1.3-4.4,3.4-6.1,6.1c0,0,0,0,0,0V70
					c0-0.4-0.3-0.8-0.8-0.8H48c-0.4,0-0.8,0.3-0.8,0.8v47.1c0,0.4,0.3,0.8,0.8,0.8h6.3c0.4,0,0.8-0.3,0.8-0.8V89
					c0-2.2,0.3-4.1,0.8-5.9c0.5-1.7,1.3-3.2,2.4-4.4c1-1.2,2.3-2.1,3.7-2.8c1.5-0.6,3.1-1,5-1c1.6,0,2.9,0.2,3.9,0.6
					c1.1,0.4,1.9,1.1,2.6,2.1c0.7,1,1.2,2.3,1.5,3.9c0.3,1.7,0.5,3.7,0.5,6.2v12l1.4-1.5l5.7-6.2l0.3-0.3l0.6-0.6V89
					c0-3.3,0.6-6.1,1.7-8.3c0,0,0,0,0,0c0.4-0.7,0.8-1.4,1.4-2c0.7-0.9,1.6-1.6,2.6-2.1c1.7-1,3.8-1.5,6.2-1.5c1.1,0,2,0.1,2.9,0.3
					l3.9-4.2L103.9,69.2z"/>
				<path class="st2" d="M111.9,143.4v-0.6l0-8.2l-0.1-19l-0.1-23.5l0-3.6l0-1.3c0-0.4,0-0.7,0-1.1v-0.3c0,0,0-0.1,0-0.1
					c0,0,0,0,0,0c0-3-0.2-5.3-0.4-6.8c-0.6-3.6-2.2-6.4-4.7-8.3l-5.5,6c0.3,0.3,0.6,0.5,0.8,0.9c0,0.1,0.1,0.1,0.1,0.2
					c0,0.1,0.1,0.1,0.1,0.2c0.6,1,1.1,2.2,1.3,3.8c0.1,0.4,0.1,0.9,0.2,1.4c0.1,1,0.2,2,0.2,3.2c0,0.3,0,0.6,0,0.9v0.2
					c0,0.2,0,0.4,0,0.5v0.4l0,0.4v0.9l0.2,57.8l0,0.3l0,1.8v0c0.2-0.1,0.4-0.2,0.5-0.3c2.5-0.9,4.8-2.2,7-3.8c0.1,0,0.2,0,0.3,0V145
					L111.9,143.4z"/>
			</g>
			<path class="st4" d="M98.2,75.4c0,0-15.5-4-14.8,16C86.4,87.5,98.2,75.4,98.2,75.4z"/>
		</g>
	</g>
</g>
</svg>
